<svg id="Layer_2" data-name="Layer 2" xmlns="http://www.w3.org/2000/svg" width="21" height="21" viewBox="0 0 21 21">
  <g id="checkmark-square">
    <rect id="Rectangle_19" data-name="Rectangle 19" width="21" height="21" fill="#116003" opacity="0"/>
    <path id="Path_13858" data-name="Path 13858" d="M18.115,10.851a.889.889,0,0,0-.889.889v4.952a.533.533,0,0,1-.533.533H5.312a.533.533,0,0,1-.533-.533V5.312a.533.533,0,0,1,.533-.533H13.82A.889.889,0,1,0,13.82,3H5.312A2.321,2.321,0,0,0,3,5.312v11.38A2.321,2.321,0,0,0,5.312,19h11.38A2.321,2.321,0,0,0,19,16.692V11.74A.889.889,0,0,0,18.115,10.851Z" transform="translate(-0.333 -0.333)" fill="#1b8706"/>
    <path id="Path_13859" data-name="Path 13859" d="M10.535,10.447a.889.889,0,0,0-1.28,1.227l1.974,2.072a.891.891,0,0,0,1.28.009l6.028-6.224a.893.893,0,0,0-1.28-1.245l-5.379,5.566Z" transform="translate(-1.004 -0.667)" fill="#116003"/>
  </g>
</svg>
