<svg xmlns="http://www.w3.org/2000/svg" width="14.182" height="14.14" viewBox="0 0 14.182 14.14">
  <g id="footwww" transform="translate(-0.001)">
    <path id="Path_13845" data-name="Path 13845" d="M185.8,2.106A9.755,9.755,0,0,0,184.1,0a9.755,9.755,0,0,0-1.7,2.106Zm0,0" transform="translate(-177.008)" fill="#f7c35f"/>
    <path id="Path_13846" data-name="Path 13846" d="M148.84,87.281a9.6,9.6,0,0,0-.75,1.891h5.431a9.6,9.6,0,0,0-.75-1.891Zm0,0" transform="translate(-143.713 -84.702)" fill="#f7c35f"/>
    <path id="Path_13847" data-name="Path 13847" d="M325.2,89.172h3.39a7.084,7.084,0,0,0-1.111-1.891h-2.989A10.085,10.085,0,0,1,325.2,89.172Zm0,0" transform="translate(-314.9 -84.702)" fill="#f7c35f"/>
    <path id="Path_13848" data-name="Path 13848" d="M324.488,329.172h2.99a7.092,7.092,0,0,0,1.111-1.891H325.2A10.09,10.09,0,0,1,324.488,329.172Zm0,0" transform="translate(-314.899 -317.611)" fill="#f7c35f"/>
    <path id="Path_13849" data-name="Path 13849" d="M20.8,87.281H17.806A7.083,7.083,0,0,0,16.7,89.172h3.391a10.08,10.08,0,0,1,.711-1.891Zm0,0" transform="translate(-16.201 -84.702)" fill="#f7c35f"/>
    <path id="Path_13850" data-name="Path 13850" d="M267.226,2.485A7.068,7.068,0,0,0,262.84.391a10.213,10.213,0,0,1,1.571,2.095Zm0,0" transform="translate(-255.073 -0.379)" fill="#f7c35f"/>
    <path id="Path_13851" data-name="Path 13851" d="M68.68,407.281a7.067,7.067,0,0,0,4.387,2.094,10.213,10.213,0,0,1-1.571-2.094Zm0,0" transform="translate(-66.649 -395.247)" fill="#f7c35f"/>
    <path id="Path_13852" data-name="Path 13852" d="M262.84,409.376a7.067,7.067,0,0,0,4.386-2.094h-2.816A10.213,10.213,0,0,1,262.84,409.376Zm0,0" transform="translate(-255.073 -395.247)" fill="#f7c35f"/>
    <path id="Path_13853" data-name="Path 13853" d="M20.117,327.281h-3.39a7.089,7.089,0,0,0,1.111,1.891h2.99a10.085,10.085,0,0,1-.711-1.891Zm0,0" transform="translate(-16.232 -317.611)" fill="#f7c35f"/>
    <path id="Path_13854" data-name="Path 13854" d="M73.067.391A7.067,7.067,0,0,0,68.68,2.485H71.5A10.212,10.212,0,0,1,73.067.391Zm0,0" transform="translate(-66.65 -0.379)" fill="#f7c35f"/>
    <path id="Path_13855" data-name="Path 13855" d="M152.771,329.172a9.6,9.6,0,0,0,.75-1.891H148.09a9.6,9.6,0,0,0,.75,1.891Zm0,0" transform="translate(-143.714 -317.611)" fill="#f7c35f"/>
    <path id="Path_13856" data-name="Path 13856" d="M182.4,407.281a9.757,9.757,0,0,0,1.7,2.106,9.757,9.757,0,0,0,1.7-2.106Zm0,0" transform="translate(-177.008 -395.247)" fill="#f7c35f"/>
    <path id="Path_13857" data-name="Path 13857" d="M13.858,167.281H.326a7.121,7.121,0,0,0,0,4.255H13.858A7.121,7.121,0,0,0,13.858,167.281ZM3.775,170.652a.236.236,0,0,1-.225.174h0a.236.236,0,0,1-.226-.169l-.483-1.609-.483,1.609a.236.236,0,0,1-.226.169h0a.236.236,0,0,1-.225-.174l-.709-2.6.456-.124.492,1.8.473-1.573a.236.236,0,0,1,.453,0l.473,1.573.492-1.8.456.124Zm4.255,0a.236.236,0,0,1-.225.174h0a.236.236,0,0,1-.226-.169l-.483-1.609-.483,1.609a.236.236,0,0,1-.226.169h0a.236.236,0,0,1-.225-.174l-.709-2.6.456-.124.492,1.8.473-1.573a.236.236,0,0,1,.453,0l.473,1.573.492-1.8.456.124Zm4.255,0a.236.236,0,0,1-.225.174h0a.236.236,0,0,1-.226-.169l-.483-1.609-.483,1.609a.236.236,0,0,1-.226.169h0a.236.236,0,0,1-.225-.174l-.709-2.6.456-.124.492,1.8.473-1.573a.236.236,0,0,1,.453,0l.473,1.573.492-1.8.456.124Zm0,0" transform="translate(0 -162.338)" fill="#f7c35f"/>
  </g>
</svg>
