<svg id="Layer_2" data-name="Layer 2" xmlns="http://www.w3.org/2000/svg" width="18" height="18" viewBox="0 0 18 18">
  <g id="phone-call">
    <rect id="Rectangle_56" data-name="Rectangle 56" width="18" height="18" fill="#f7c35f" opacity="0"/>
    <path id="Path_13877" data-name="Path 13877" d="M12.738,7.476A2.214,2.214,0,0,1,14.952,9.69a.738.738,0,1,0,1.476,0A3.69,3.69,0,0,0,12.738,6a.738.738,0,1,0,0,1.476Z" transform="translate(-3.143 -1.571)" fill="#f7c35f"/>
    <path id="Path_13878" data-name="Path 13878" d="M10.119,3.476a5.167,5.167,0,0,1,5.167,5.167.738.738,0,1,0,1.476,0A6.643,6.643,0,0,0,10.119,2a.738.738,0,0,0,0,1.476Zm6.458,8.791a.738.738,0,0,0-.531-.48l-4.429-1.011a.738.738,0,0,0-.679.192c-.1.1-.111.1-.59,1.019A7.314,7.314,0,0,1,6.753,8.377C7.691,7.9,7.7,7.9,7.794,7.794a.738.738,0,0,0,.192-.679L6.975,2.738a.738.738,0,0,0-.48-.531,2.8,2.8,0,0,0-.531-.133A2.908,2.908,0,0,0,5.4,2,3.4,3.4,0,0,0,2,5.4,11.381,11.381,0,0,0,13.367,16.762a3.4,3.4,0,0,0,3.4-3.4,3.521,3.521,0,0,0-.044-.561A3.2,3.2,0,0,0,16.577,12.267Z" transform="translate(-0.524 -0.524)" fill="#f7c35f"/>
  </g>
</svg>
