<svg id="Group_5357" data-name="Group 5357" xmlns="http://www.w3.org/2000/svg" width="31.623" height="31.599" viewBox="0 0 31.623 31.599">
  <g id="Group_1374" data-name="Group 1374" transform="translate(0 2.924)">
    <g id="Group_1373" data-name="Group 1373">
      <path id="Path_4100" data-name="Path 4100" d="M20.483,88.566a2.206,2.206,0,0,1-2.924-.175l-6.511-6.511a2.207,2.207,0,0,1-.176-2.924L2.627,70.69a10.534,10.534,0,0,0,.526,14.328L14.421,96.285a10.544,10.544,0,0,0,14.328.526Z" transform="translate(-0.069 -70.69)" fill="#fff"/>
    </g>
  </g>
  <g id="Group_1376" data-name="Group 1376" transform="translate(3.903)">
    <g id="Group_1375" data-name="Group 1375">
      <path id="Path_4101" data-name="Path 4101" d="M69.08,30.663l-4.133-4.152a3.017,3.017,0,0,0-4.133,0l-.682.7L68.4,35.478l.682-.682a2.874,2.874,0,0,0,.858-2.066A2.841,2.841,0,0,0,69.08,30.663Z" transform="translate(-60.133 -25.692)" fill="#fff"/>
    </g>
  </g>
  <g id="Group_1378" data-name="Group 1378" transform="translate(21.817 17.919)">
    <g id="Group_1377" data-name="Group 1377">
      <path id="Path_4102" data-name="Path 4102" d="M344.8,306.433l-4.152-4.133a2.978,2.978,0,0,0-4.133,0l-.682.682,8.265,8.265.7-.682a2.966,2.966,0,0,0,0-4.133Z" transform="translate(-335.833 -301.467)" fill="#fff"/>
    </g>
  </g>
</svg>
