<svg xmlns="http://www.w3.org/2000/svg" width="54.121" height="62.078" viewBox="0 0 54.121 62.078">
  <g id="Group_5332" data-name="Group 5332" transform="translate(-9.381 -1.3)">
    <path id="Path_13870" data-name="Path 13870" d="M18.772,24.913a3.555,3.555,0,0,1-2.079.4,8.414,8.414,0,0,1-2.525-.347,14.111,14.111,0,0,1-2.079-.792L11,27.042a18.139,18.139,0,0,0,1.683.693,10.592,10.592,0,0,0,2.921.545v2.97h3.119V28.23a6.994,6.994,0,0,0,2.03-.644A4.167,4.167,0,0,0,22.089,26.5a3.565,3.565,0,0,0,.743-1.337,5.185,5.185,0,0,0,.248-1.485,4.626,4.626,0,0,0-.4-1.931,3.825,3.825,0,0,0-1.089-1.436A8.513,8.513,0,0,0,19.96,19.22c-.644-.3-1.287-.594-2.03-.891a11.4,11.4,0,0,1-1.238-.446,4.316,4.316,0,0,1-.842-.446,1.187,1.187,0,0,1-.5-.5,1.438,1.438,0,0,1-.149-.693,1.226,1.226,0,0,1,.545-1.04,3.08,3.08,0,0,1,1.733-.4,11.459,11.459,0,0,1,2.277.248,8.419,8.419,0,0,1,1.881.594l.792-2.97a8.557,8.557,0,0,0-1.485-.5,18.441,18.441,0,0,0-2.228-.4V9.221H15.6v2.673a6.46,6.46,0,0,0-1.881.644,4.56,4.56,0,0,0-1.287,1.04,3.766,3.766,0,0,0-.743,1.386,5.579,5.579,0,0,0-.248,1.584,4.165,4.165,0,0,0,.4,1.832,3.735,3.735,0,0,0,1.04,1.287,7,7,0,0,0,1.436.891c.545.248,1.04.446,1.584.644s1.04.4,1.485.545a7.4,7.4,0,0,1,1.089.545,2.535,2.535,0,0,1,.644.594,1.5,1.5,0,0,1,.248.792A1.382,1.382,0,0,1,18.772,24.913ZM56.543,4.122H60.6v17.92l2.327-.594a2.105,2.105,0,0,1,.545-.1V1.3H53.722V23.874l2.822-.743ZM60.7,36.844l-.05-.049V60.556H56.543V37.834Q55.133,39.1,53.722,40.21V63.328h9.752V37.438A3.075,3.075,0,0,1,60.7,36.844Zm-17.97-18.91h4.059V34.963c.941-.743,1.931-1.485,2.822-2.228V15.112h-9.7V39.517c.941-.545,1.931-1.139,2.822-1.733Zm4.059,42.573H42.732V47.537L39.91,49.022V63.378h9.752v-20.1c-.941.644-1.881,1.287-2.822,1.881V60.507ZM28.871,29.814H32.93V42.933c.941-.4,1.881-.842,2.822-1.287V26.992h-9.7V45.507c.941-.3,1.881-.594,2.822-.941V29.814ZM32.93,60.507H28.871V53.378c-.941.3-1.881.594-2.822.842v9.109h9.7V50.853c-.941.4-1.881.792-2.822,1.139Zm-13.812.05H15.059V56.6c-.941.149-1.881.248-2.822.4v6.386H21.99V55.309l-2.822.594v4.653ZM21.94,46.645v-9.8h-9.7V48.527c.941-.149,1.881-.248,2.822-.446V39.665h4.059v7.673C20.059,47.141,21.049,46.893,21.94,46.645Z" transform="translate(-0.818 0)" fill="#fff"/>
    <path id="Path_13871" data-name="Path 13871" d="M61.419,57.869a.607.607,0,0,0,.99-.4L63.5,47.226a.608.608,0,0,0-.743-.644l-10,2.624a.624.624,0,0,0-.248,1.04l2.921,2.475C43.8,64.5,28.895,71.582,10.975,73.81A1.816,1.816,0,0,0,9.39,75.79a1.872,1.872,0,0,0,2.03,1.634A82.983,82.983,0,0,0,37.806,69.8,72.9,72.9,0,0,0,58.2,55.147Z" transform="translate(0 -22.857)" fill="#fff"/>
  </g>
</svg>
