<svg xmlns="http://www.w3.org/2000/svg" width="21.114" height="16.88" viewBox="0 0 21.114 16.88">
  <path id="Path_12839" data-name="Path 12839" d="M1074.813,475.909V486.09a2.093,2.093,0,0,1-2.09,2.09h-16.88a2.093,2.093,0,0,1-2.09-2.09v-9.86l2.09,1.125,7.931,4.341a.8.8,0,0,0,.482.107,1.034,1.034,0,0,0,.536-.161l7.931-4.609Zm-2.144-4.609h-16.88a2.093,2.093,0,0,0-2.09,2.09v.429l2.09,1.179,8.467,4.609,8.467-4.93,2.09-1.233h0A2.15,2.15,0,0,0,1072.67,471.3Z" transform="translate(-1053.7 -471.3)" fill="#fff"/>
</svg>
