<svg xmlns="http://www.w3.org/2000/svg" width="64.205" height="64.205" viewBox="0 0 64.205 64.205">
  <g id="Group_5333" data-name="Group 5333" transform="translate(-0.5 -0.4)">
    <path id="Path_13872" data-name="Path 13872" d="M1.179,29.055a.964.964,0,0,0-.679.97v5.722a1.168,1.168,0,0,0,.679.97l3.879,1.067a26.662,26.662,0,0,0,1.455,3.492L4.476,44.863a.9.9,0,0,0,.194,1.164L8.744,50a1.031,1.031,0,0,0,1.164.194L13.5,48.161a22.084,22.084,0,0,0,3.492,1.455L18.055,53.5a.964.964,0,0,0,.97.679h5.722a1.168,1.168,0,0,0,.97-.679l1.067-3.879a26.664,26.664,0,0,0,3.492-1.455L33.863,50.2A.9.9,0,0,0,35.027,50L39.1,45.93a1.031,1.031,0,0,0,.194-1.164l-2.037-3.589a22.082,22.082,0,0,0,1.455-3.492l3.879-1.067a.964.964,0,0,0,.679-.97V29.927a1.168,1.168,0,0,0-.679-.97l-3.879-1.067A22.083,22.083,0,0,0,37.258,24.4l2.037-3.589a.9.9,0,0,0-.194-1.164L34.93,15.67a1.031,1.031,0,0,0-1.164-.194l-3.589,2.037a22.083,22.083,0,0,0-3.492-1.455L25.62,12.179a.964.964,0,0,0-.97-.679H18.927a1.168,1.168,0,0,0-.97.679l-1.067,3.879A26.663,26.663,0,0,0,13.4,17.513L9.811,15.476a.9.9,0,0,0-1.164.194L4.767,19.744a1.031,1.031,0,0,0-.194,1.164L6.61,24.5a22.083,22.083,0,0,0-1.455,3.492Zm5.722-.1A15.69,15.69,0,0,1,8.55,24.981a.881.881,0,0,0,0-.97L6.61,20.617,9.617,17.61l3.395,1.94a.881.881,0,0,0,.97,0A12.821,12.821,0,0,1,17.958,17.9a1.172,1.172,0,0,0,.679-.679L19.7,13.44h4.267l1.067,3.782a1.172,1.172,0,0,0,.679.679,15.69,15.69,0,0,1,3.976,1.649.881.881,0,0,0,.97,0l3.395-1.94,3.007,3.007-1.94,3.395a.881.881,0,0,0,0,.97,15.69,15.69,0,0,1,1.649,3.976,1.172,1.172,0,0,0,.679.679L41.234,30.7v4.267l-3.782,1.067a1.172,1.172,0,0,0-.679.679,15.69,15.69,0,0,1-1.649,3.976.881.881,0,0,0,0,.97l1.94,3.395-3.007,3.007-3.395-1.94a.881.881,0,0,0-.97,0,13.4,13.4,0,0,1-3.976,1.746,1.172,1.172,0,0,0-.679.679l-1.067,3.782H19.7l-1.067-3.782a1.172,1.172,0,0,0-.679-.679,15.69,15.69,0,0,1-3.976-1.649.881.881,0,0,0-.97,0l-3.395,1.94L6.61,45.154,8.55,41.76a.881.881,0,0,0,0-.97A12.821,12.821,0,0,1,6.9,36.814a1.172,1.172,0,0,0-.679-.679L2.44,35.068V30.8l3.782-1.067A1.346,1.346,0,0,0,6.9,28.958Z" transform="translate(0 -0.334)" fill="#fff"/>
    <path id="Path_13873" data-name="Path 13873" d="M17.14,37.033,15.2,39.361a12.313,12.313,0,0,0,6.6,2.91v1.94h1.746V42.27c3.395-.194,6.013-2.037,6.013-5.431,0-3.492-2.522-4.752-5.916-5.528h-.1V26.267a8.07,8.07,0,0,1,3.782,1.552l1.746-2.425a12.02,12.02,0,0,0-5.528-2.037V22H21.8v1.358c-3.3.194-5.819,2.134-5.819,5.334,0,3.395,2.328,4.558,5.819,5.334v5.14A7.875,7.875,0,0,1,17.14,37.033Zm6.3-2.425c1.552.485,2.813.97,2.813,2.522,0,1.455-1.358,2.134-2.813,2.328ZM19.176,28.5c0-1.358,1.164-2.037,2.522-2.231v4.655C20.243,30.438,19.176,29.953,19.176,28.5Zm45.1,26.186a.963.963,0,0,0,.679-.97V50.32a1.168,1.168,0,0,0-.679-.97l-2.134-.582a6.89,6.89,0,0,0-.776-1.746l1.067-1.94a.9.9,0,0,0-.194-1.164l-2.425-2.425A1.031,1.031,0,0,0,58.65,41.3l-1.94,1.067a13.739,13.739,0,0,0-1.746-.776l-.582-2.134a.964.964,0,0,0-.97-.679H50.018a1.168,1.168,0,0,0-.97.679l-.582,2.134a6.89,6.89,0,0,0-1.746.776L44.781,41.3a.9.9,0,0,0-1.164.194l-2.425,2.425A1.031,1.031,0,0,0,41,45.083l1.067,1.94a13.739,13.739,0,0,0-.776,1.746l-2.134.582a.964.964,0,0,0-.679.97v3.395a1.168,1.168,0,0,0,.679.97l2.134.582a6.89,6.89,0,0,0,.776,1.746L41,58.952a.9.9,0,0,0,.194,1.164l2.425,2.425a1.031,1.031,0,0,0,1.164.194l1.94-1.067a13.741,13.741,0,0,0,1.746.776l.582,2.134a.963.963,0,0,0,.97.679h3.395a1.168,1.168,0,0,0,.97-.679l.582-2.134a6.89,6.89,0,0,0,1.746-.776l1.94,1.067a.9.9,0,0,0,1.164-.194l2.425-2.425a1.031,1.031,0,0,0,.194-1.164l-1.067-1.94a13.739,13.739,0,0,0,.776-1.746Zm-3.2-1.164a1.172,1.172,0,0,0-.679.679,7.934,7.934,0,0,1-.97,2.328.881.881,0,0,0,0,.97l.97,1.746L59.038,60.6l-1.746-.97a.881.881,0,0,0-.97,0,8.4,8.4,0,0,1-2.328.97,1.172,1.172,0,0,0-.679.679l-.582,1.94h-1.94l-.582-1.94a1.172,1.172,0,0,0-.679-.679,7.934,7.934,0,0,1-2.328-.97.881.881,0,0,0-.97,0l-1.746.97-1.358-1.358L44.1,57.5a.881.881,0,0,0,0-.97,8.4,8.4,0,0,1-.97-2.328,1.172,1.172,0,0,0-.679-.679l-1.94-.582V51l1.94-.582a1.172,1.172,0,0,0,.679-.679,7.934,7.934,0,0,1,.97-2.328.881.881,0,0,0,0-.97l-.97-1.746,1.358-1.358,1.746.97a.881.881,0,0,0,.97,0,8.4,8.4,0,0,1,2.328-.97,1.172,1.172,0,0,0,.679-.679l.582-1.94h1.94l.582,1.94a1.172,1.172,0,0,0,.679.679,7.934,7.934,0,0,1,2.328.97.881.881,0,0,0,.97,0l1.746-.97L60.4,44.695l-.97,1.746a.881.881,0,0,0,0,.97,8.4,8.4,0,0,1,.97,2.328,1.172,1.172,0,0,0,.679.679l1.94.582v1.94Z" transform="translate(-0.443 -0.651)" fill="#fff"/>
    <path id="Path_13874" data-name="Path 13874" d="M53.269,50.251h0V47.245a4.805,4.805,0,0,1,2.328.97l1.067-1.455A7.118,7.118,0,0,0,53.172,45.6V44.82H52.105V45.6c-1.94.1-3.492,1.261-3.492,3.2,0,2.037,1.358,2.716,3.492,3.2v3.1a5.546,5.546,0,0,1-2.716-1.358L48.226,55.1a7.449,7.449,0,0,0,3.879,1.746V58.01h1.067V56.846c2.037-.1,3.589-1.261,3.589-3.2C56.761,51.512,55.306,50.736,53.269,50.251ZM52.2,49.96c-.97-.291-1.552-.485-1.552-1.358,0-.776.679-1.261,1.552-1.358Zm.97,5.14v-2.91c.97.291,1.649.582,1.649,1.455C54.821,54.616,54.045,55,53.172,55.1ZM40.079,10.972a.964.964,0,0,0-.679.97v3.395a1.168,1.168,0,0,0,.679.97l2.134.582a6.89,6.89,0,0,0,.776,1.746l-1.067,1.94a.9.9,0,0,0,.194,1.164l2.425,2.425a1.031,1.031,0,0,0,1.164.194l1.94-1.067a13.74,13.74,0,0,0,1.746.776l.582,2.134a.963.963,0,0,0,.97.679h3.395a1.168,1.168,0,0,0,.97-.679l.582-2.134a6.89,6.89,0,0,0,1.746-.776l1.94,1.067a.9.9,0,0,0,1.164-.194l2.425-2.425a1.031,1.031,0,0,0,.194-1.164l-1.067-1.94a13.739,13.739,0,0,0,.776-1.746l2.134-.582a.963.963,0,0,0,.679-.97V11.941a1.168,1.168,0,0,0-.679-.97l-2.134-.582a6.89,6.89,0,0,0-.776-1.746L63.356,6.7a.9.9,0,0,0-.194-1.164L60.737,3.116a1.031,1.031,0,0,0-1.164-.194l-1.94,1.067a13.74,13.74,0,0,0-1.746-.776l-.582-2.134A.964.964,0,0,0,54.336.4H50.941a1.168,1.168,0,0,0-.97.679L49.39,3.213a6.89,6.89,0,0,0-1.746.776L45.7,2.922a.9.9,0,0,0-1.164.194L42.116,5.54A1.031,1.031,0,0,0,41.922,6.7l1.067,1.94a13.74,13.74,0,0,0-.776,1.746Zm3.2,1.164a1.172,1.172,0,0,0,.679-.679,7.934,7.934,0,0,1,.97-2.328.881.881,0,0,0,0-.97l-.97-1.746,1.358-1.358,1.746.97a.881.881,0,0,0,.97,0,8.4,8.4,0,0,1,2.328-.97,1.172,1.172,0,0,0,.679-.679l.582-1.94h1.94l.582,1.94a1.172,1.172,0,0,0,.679.679,7.934,7.934,0,0,1,2.328.97.881.881,0,0,0,.97,0l1.746-.97,1.358,1.358-.97,1.746a.881.881,0,0,0,0,.97,8.4,8.4,0,0,1,.97,2.328,1.172,1.172,0,0,0,.679.679l1.94.582v1.94l-1.94.582a1.172,1.172,0,0,0-.679.679,7.933,7.933,0,0,1-.97,2.328.881.881,0,0,0,0,.97l.97,1.746-1.455,1.358-1.746-.97a.881.881,0,0,0-.97,0,8.4,8.4,0,0,1-2.328.97,1.172,1.172,0,0,0-.679.679l-.582,1.94h-1.94L50.941,23a1.172,1.172,0,0,0-.679-.679,7.933,7.933,0,0,1-2.328-.97.881.881,0,0,0-.97,0l-1.746.97-1.358-1.455.97-1.746a.881.881,0,0,0,0-.97,8.4,8.4,0,0,1-.97-2.328,1.172,1.172,0,0,0-.679-.679l-1.94-.582V12.62Z" transform="translate(-1.172 0)" fill="#fff"/>
    <path id="Path_13875" data-name="Path 13875" d="M49.664,16.223,48.5,17.581a7.449,7.449,0,0,0,3.879,1.746V20.49h1.067V19.326c2.037-.1,3.589-1.261,3.589-3.2,0-2.134-1.552-2.813-3.589-3.3h0V9.822a4.805,4.805,0,0,1,2.328.97l.97-1.552a7.121,7.121,0,0,0-3.3-1.164V7.3H52.379v.776c-1.94.1-3.492,1.261-3.492,3.2,0,2.037,1.358,2.716,3.492,3.2v3.1A5.978,5.978,0,0,1,49.664,16.223Zm3.782-1.455c.97.291,1.649.582,1.649,1.455s-.776,1.261-1.649,1.358Zm-2.522-3.685c0-.776.679-1.261,1.552-1.358V12.44C51.507,12.246,50.925,11.955,50.925,11.082Z" transform="translate(-1.446 -0.208)" fill="#fff"/>
  </g>
</svg>
