<svg xmlns="http://www.w3.org/2000/svg" xmlns:xlink="http://www.w3.org/1999/xlink" width="176.263" height="176.263" viewBox="0 0 176.263 176.263">
  <defs>
    <filter id="Path_13867" x="0" y="0" width="176.263" height="176.263" filterUnits="userSpaceOnUse">
      <feOffset input="SourceAlpha"/>
      <feGaussianBlur stdDeviation="3" result="blur"/>
      <feFlood flood-opacity="0.231"/>
      <feComposite operator="in" in2="blur"/>
      <feComposite in="SourceGraphic"/>
    </filter>
  </defs>
  <g id="Group_5365" data-name="Group 5365" transform="translate(-34.868 -1339.368)">
    <g transform="matrix(1, 0, 0, 1, 34.87, 1339.37)" filter="url(#Path_13867)">
      <path id="Path_13867-2" data-name="Path 13867" d="M72,0a71.971,71.971,0,0,1,47.2,126.326c-.361.682-1.373,12.572-1.879,12.066-.253,0-12.9-1.012-13.987-1.551A72.007,72.007,0,1,1,72,0Z" transform="matrix(0.99, -0.1, 0.1, 0.99, 9, 24.05)" fill="#97c63a"/>
    </g>
    <g id="Group_5331" data-name="Group 5331" transform="translate(85 1384.811)">
      <g id="Group_5330" data-name="Group 5330">
        <path id="Path_13860" data-name="Path 13860" d="M43,11V40.882h7.115V16.692h18.5V11Z" transform="translate(-41.577 1.807)" fill="#bfbfbf"/>
        <path id="Path_13861" data-name="Path 13861" d="M15,9V20.384l11.384-2.846V11.846Z" transform="translate(40.496 0.961)" fill="#bfbfbf"/>
        <rect id="Rectangle_20" data-name="Rectangle 20" width="14" height="6" rx="1" transform="translate(31.511 1.689)" fill="#bfbfbf"/>
        <rect id="Rectangle_21" data-name="Rectangle 21" width="22" height="5" transform="translate(26.511 13.689)" fill="#bfbfbf"/>
        <path id="Path_13866" data-name="Path 13866" d="M8.538,0H0V8.538H8.538Z" transform="translate(34.151 18.499)" fill="#bfbfbf"/>
        <rect id="Rectangle_23" data-name="Rectangle 23" width="38" height="8" transform="translate(19.511 69.689)" fill="#bfbfbf"/>
        <path id="Path_13862" data-name="Path 13862" d="M22,22.423v4.269H59V22.423A1.423,1.423,0,0,0,57.574,21H23.423A1.423,1.423,0,0,0,22,22.423Zm8.737,17.133c1.124-1.949.64-5.663,2.59-6.788,1.878-1.1,4.838,1.153,7.172,1.153s5.293-2.248,7.172-1.153c1.949,1.124,1.466,4.838,2.59,6.788,1.1,1.878,4.582,3.3,4.582,5.635s-3.486,3.757-4.582,5.635c-1.124,1.949-.64,5.663-2.59,6.788-1.878,1.1-4.838-1.153-7.172-1.153s-5.293,2.248-7.172,1.153c-1.949-1.124-1.466-4.838-2.59-6.788-1.1-1.878-4.582-3.3-4.582-5.635S29.641,41.434,30.737,39.556Zm9.762,9.9a4.269,4.269,0,1,0-4.269-4.269A4.269,4.269,0,0,0,40.5,49.459Z" transform="translate(-2.078 6.036)" fill="#eeedea"/>
        <path id="Path_13863" data-name="Path 13863" d="M12.423,13.384H48V10.538H43.728a2.854,2.854,0,0,1-2.846-2.846V4.846A2.854,2.854,0,0,1,43.728,2H55.112a2.854,2.854,0,0,1,2.846,2.846V7.692a2.854,2.854,0,0,1-2.846,2.846H50.843v2.846h14.23V11.961a1.412,1.412,0,0,1,1.764-1.38L76.528,13a1.4,1.4,0,0,1,1.352-1.039h4.269a1.423,1.423,0,0,1,1.423,1.423v8.538a1.423,1.423,0,0,1-1.423,1.423H77.88a1.4,1.4,0,0,1-1.352-1.039l-9.69,2.419a1.412,1.412,0,0,1-1.764-1.38V21.922H55.112v5.692H66.5a2.854,2.854,0,0,1,2.846,2.846V84.532A2.854,2.854,0,0,1,66.5,87.378H32.345A2.854,2.854,0,0,1,29.5,84.532V30.459a2.854,2.854,0,0,1,2.846-2.846H43.728V21.922H20.961V44.689a1.423,1.423,0,0,1-1.423,1.423H12.423A1.423,1.423,0,0,1,11,44.689V14.807A1.423,1.423,0,0,1,12.423,13.384ZM79.3,20.5h1.423V14.807H79.3ZM67.919,21.523l8.538-2.134V15.917l-8.538-2.134ZM55.112,7.692V4.846H43.728V7.692ZM60.8,19.076h4.269V16.23H60.8ZM32.345,84.532H66.5V81.687H32.345Zm0-5.692H66.5V73.149H32.345Zm0-8.538H66.5V36.151H32.345Zm0-39.843v2.846H66.5V30.459Zm19.922-2.846V21.922H46.574v5.692ZM39.46,19.076h18.5V16.23H39.46ZM13.846,43.266h4.269V20.5a1.423,1.423,0,0,1,1.423-1.423H36.614V16.23H13.846Z" transform="translate(-11 -2)"/>
        <path id="Path_13864" data-name="Path 13864" d="M26.979,37.566a8.016,8.016,0,0,0,1.708-1.708,8.744,8.744,0,0,0,.669-2.448c.342-1.807.711-3.856,2.448-4.867,1.693-.968,3.614-.285,5.322.313a8.7,8.7,0,0,0,2.561.655,8.7,8.7,0,0,0,2.561-.655c1.708-.6,3.643-1.281,5.322-.313,1.736,1.01,2.106,3.059,2.448,4.867a8.744,8.744,0,0,0,.669,2.448,8.016,8.016,0,0,0,1.708,1.708c1.437,1.2,3.059,2.561,3.059,4.639s-1.622,3.444-3.059,4.639a8.016,8.016,0,0,0-1.708,1.708A8.744,8.744,0,0,0,50.017,51c-.342,1.807-.711,3.856-2.448,4.867-1.679.968-3.614.285-5.322-.313a8.7,8.7,0,0,0-2.561-.655,8.7,8.7,0,0,0-2.561.655,10.662,10.662,0,0,1-3.415.8,3.7,3.7,0,0,1-1.907-.484C30.067,54.855,29.7,52.806,29.356,51a8.744,8.744,0,0,0-.669-2.448,8.016,8.016,0,0,0-1.708-1.708c-1.437-1.2-3.059-2.561-3.059-4.639S25.542,38.761,26.979,37.566Zm1.821,7.1a9.851,9.851,0,0,1,2.348,2.462,10.234,10.234,0,0,1,1.01,3.358c.228,1.2.47,2.561,1.067,2.917.555.313,1.821-.142,2.946-.526a10.552,10.552,0,0,1,3.515-.825,10.553,10.553,0,0,1,3.515.825c1.124.384,2.4.84,2.946.527.6-.356.84-1.708,1.067-2.917a10.234,10.234,0,0,1,1.01-3.358,9.851,9.851,0,0,1,2.348-2.462c1-.84,2.035-1.708,2.035-2.462s-1.039-1.622-2.035-2.462a9.851,9.851,0,0,1-2.348-2.462,10.234,10.234,0,0,1-1.01-3.358c-.228-1.2-.47-2.561-1.067-2.917a1.036,1.036,0,0,0-.5-.1,8.85,8.85,0,0,0-2.448.626,10.553,10.553,0,0,1-3.515.825,10.552,10.552,0,0,1-3.515-.825c-1.124-.384-2.391-.84-2.946-.527-.6.356-.84,1.708-1.067,2.917a10.234,10.234,0,0,1-1.01,3.358A9.851,9.851,0,0,1,28.8,39.743c-1,.84-2.035,1.708-2.035,2.462S27.8,43.827,28.8,44.666Z" transform="translate(-1.266 9.023)"/>
        <rect id="Rectangle_24" data-name="Rectangle 24" width="7" height="2" transform="translate(77.511 14.689)"/>
        <rect id="Rectangle_25" data-name="Rectangle 25" width="2.846" height="5.692" transform="matrix(-0.707, -0.707, 0.707, -0.707, 77.186, 11.627)"/>
        <rect id="Rectangle_26" data-name="Rectangle 26" width="5.692" height="2.846" transform="translate(79.199 25.715) rotate(-135)"/>
        <path id="Path_13865" data-name="Path 13865" d="M36.692,45.384a5.692,5.692,0,1,1,5.692-5.692A5.692,5.692,0,0,1,36.692,45.384Zm0-8.538a2.846,2.846,0,1,0,2.846,2.846A2.846,2.846,0,0,0,36.692,36.846Z" transform="translate(1.728 11.535)"/>
      </g>
    </g>
  </g>
</svg>
