<svg xmlns="http://www.w3.org/2000/svg" width="64.214" height="64.214" viewBox="0 0 64.214 64.214">
  <path id="Path_13868" data-name="Path 13868" d="M32.107,0A32.107,32.107,0,1,0,64.214,32.107,32.126,32.126,0,0,0,32.107,0Zm0,2.47A29.637,29.637,0,1,1,2.47,32.107,29.618,29.618,0,0,1,32.107,2.47Zm-1.22,9.879v2.643A17.125,17.125,0,0,0,15.06,30.819H12.349v2.47H15.06A17.128,17.128,0,0,0,30.886,49.115v2.75h2.47v-2.75A17.128,17.128,0,0,0,49.183,33.289h2.682v-2.47H49.183A17.125,17.125,0,0,0,33.356,14.992V12.349Zm0,5.108v2.426a12.262,12.262,0,0,0-10.94,10.935H17.529A14.619,14.619,0,0,1,30.886,17.457Zm2.47,0A14.619,14.619,0,0,1,46.713,30.819H44.292A12.257,12.257,0,0,0,33.356,19.883Zm-2.47,4.959v2.417A7.347,7.347,0,0,0,24.9,30.819H22.479A9.676,9.676,0,0,1,30.886,22.416Zm2.47,0a9.671,9.671,0,0,1,8.4,8.4H39.342a7.347,7.347,0,0,0-5.986-5.986Zm-1.78,4.814h1.09A4.831,4.831,0,0,1,36.984,31.9v.3a4.841,4.841,0,0,1-3.922,4.631H31.181a4.843,4.843,0,0,1-3.8-3.671V30.939A4.831,4.831,0,0,1,31.576,27.23Zm.545,2.368a2.458,2.458,0,1,0,2.455,2.455A2.477,2.477,0,0,0,32.121,29.6Zm-.015,2.446h.015c-.008,0,.01.025.01,0,0,0-.017.024-.01.024S32.107,32.044,32.107,32.044ZM17.529,33.289h2.417a12.268,12.268,0,0,0,10.94,10.936v2.421A14.618,14.618,0,0,1,17.529,33.289Zm4.949,0H24.9a7.352,7.352,0,0,0,5.986,5.986V41.7A9.685,9.685,0,0,1,22.479,33.289Zm16.864,0h2.417a9.68,9.68,0,0,1-8.4,8.408V39.275A7.352,7.352,0,0,0,39.342,33.289Zm4.949,0h2.422A14.619,14.619,0,0,1,33.356,46.645V44.224A12.263,12.263,0,0,0,44.292,33.289Z" fill="#fff"/>
</svg>
