<svg xmlns="http://www.w3.org/2000/svg" width="16.931" height="16.88" viewBox="0 0 16.931 16.88">
  <g id="worldwide" transform="translate(-0.001)">
    <path id="Path_13845" data-name="Path 13845" d="M186.462,2.514A11.645,11.645,0,0,0,184.431,0,11.645,11.645,0,0,0,182.4,2.514Zm0,0" transform="translate(-175.964)" fill="#fff"/>
    <path id="Path_13846" data-name="Path 13846" d="M148.985,87.281a11.455,11.455,0,0,0-.9,2.257h6.484a11.454,11.454,0,0,0-.9-2.257Zm0,0" transform="translate(-142.865 -84.203)" fill="#fff"/>
    <path id="Path_13847" data-name="Path 13847" d="M325.337,89.538h4.047a8.458,8.458,0,0,0-1.326-2.257h-3.569A12.04,12.04,0,0,1,325.337,89.538Zm0,0" transform="translate(-313.042 -84.202)" fill="#fff"/>
    <path id="Path_13848" data-name="Path 13848" d="M324.488,329.538h3.57a8.468,8.468,0,0,0,1.326-2.257h-4.047A12.047,12.047,0,0,1,324.488,329.538Zm0,0" transform="translate(-313.041 -315.737)" fill="#fff"/>
    <path id="Path_13849" data-name="Path 13849" d="M21.592,87.281h-3.57A8.456,8.456,0,0,0,16.7,89.539h4.048a12.033,12.033,0,0,1,.848-2.257Zm0,0" transform="translate(-16.105 -84.203)" fill="#fff"/>
    <path id="Path_13850" data-name="Path 13850" d="M268.077,2.891a8.437,8.437,0,0,0-5.236-2.5,12.192,12.192,0,0,1,1.875,2.5Zm0,0" transform="translate(-253.568 -0.377)" fill="#fff"/>
    <path id="Path_13851" data-name="Path 13851" d="M68.68,407.281a8.437,8.437,0,0,0,5.237,2.5,12.19,12.19,0,0,1-1.875-2.5Zm0,0" transform="translate(-66.256 -392.915)" fill="#fff"/>
    <path id="Path_13852" data-name="Path 13852" d="M262.84,409.782a8.437,8.437,0,0,0,5.237-2.5h-3.361A12.19,12.19,0,0,1,262.84,409.782Zm0,0" transform="translate(-253.568 -392.915)" fill="#fff"/>
    <path id="Path_13853" data-name="Path 13853" d="M20.774,327.281H16.727a8.463,8.463,0,0,0,1.326,2.257h3.569a12.041,12.041,0,0,1-.848-2.257Zm0,0" transform="translate(-16.136 -315.737)" fill="#fff"/>
    <path id="Path_13854" data-name="Path 13854" d="M73.917.391a8.437,8.437,0,0,0-5.237,2.5h3.362a12.191,12.191,0,0,1,1.875-2.5Zm0,0" transform="translate(-66.256 -0.377)" fill="#fff"/>
    <path id="Path_13855" data-name="Path 13855" d="M153.678,329.538a11.457,11.457,0,0,0,.9-2.257H148.09a11.456,11.456,0,0,0,.9,2.257Zm0,0" transform="translate(-142.866 -315.737)" fill="#fff"/>
    <path id="Path_13856" data-name="Path 13856" d="M182.4,407.281a11.648,11.648,0,0,0,2.032,2.514,11.648,11.648,0,0,0,2.032-2.514Zm0,0" transform="translate(-175.963 -392.915)" fill="#fff"/>
    <path id="Path_13857" data-name="Path 13857" d="M16.544,167.281H.389a8.5,8.5,0,0,0,0,5.079H16.544A8.5,8.5,0,0,0,16.544,167.281ZM4.506,171.306a.282.282,0,0,1-.269.208h0a.282.282,0,0,1-.27-.2l-.576-1.921-.576,1.921a.282.282,0,0,1-.27.2h0a.282.282,0,0,1-.269-.208l-.847-3.1.545-.148.587,2.153.564-1.878a.282.282,0,0,1,.541,0l.564,1.878.587-2.153.545.148Zm5.079,0a.282.282,0,0,1-.269.208h0a.282.282,0,0,1-.27-.2l-.576-1.921-.576,1.921a.282.282,0,0,1-.27.2h0a.282.282,0,0,1-.269-.208L6.5,168.2l.545-.148.587,2.153.564-1.878a.282.282,0,0,1,.541,0l.564,1.878.587-2.153.545.148Zm5.079,0a.282.282,0,0,1-.269.208h0a.282.282,0,0,1-.27-.2l-.576-1.921-.576,1.921a.282.282,0,0,1-.27.2h0a.282.282,0,0,1-.269-.208l-.847-3.1.545-.148.587,2.153.564-1.878a.282.282,0,0,1,.541,0l.564,1.878.587-2.153.545.148Zm0,0" transform="translate(0 -161.381)" fill="#fff"/>
  </g>
</svg>
